<svg width="263" height="29" viewBox="0 0 263 29" fill="none" xmlns="http://www.w3.org/2000/svg">
<path d="M25.676 1.588C26.9267 2.036 27.552 2.63333 27.552 3.38C27.552 3.62267 27.44 4.08 27.216 4.752L21.84 20.292C21.8027 20.4227 21.7373 20.5813 21.644 20.768C21.5507 20.9547 21.2987 21.2067 20.888 21.524C20.496 21.8227 20.02 21.972 19.46 21.972C18.9187 21.972 18.4427 21.8227 18.032 21.524C17.64 21.2067 17.3787 20.8987 17.248 20.6L13.972 10.94C11.9 17.0627 10.8453 20.18 10.808 20.292C10.7707 20.404 10.6867 20.5627 10.556 20.768C10.4253 20.9733 10.276 21.16 10.108 21.328C9.67867 21.7573 9.16533 21.972 8.568 21.972C7.97067 21.972 7.476 21.832 7.084 21.552C6.71067 21.272 6.45867 20.992 6.328 20.712L6.132 20.292L0.728 4.752C0.522667 4.136 0.42 3.67867 0.42 3.38C0.42 2.63333 1.04533 2.04533 2.296 1.616C2.83733 1.42933 3.32267 1.336 3.752 1.336C4.2 1.336 4.536 1.48533 4.76 1.784C5.00267 2.08267 5.21733 2.54 5.404 3.156L8.484 12.508L11.536 3.296C11.7973 2.512 12.2733 1.97067 12.964 1.672C13.2627 1.54133 13.6453 1.476 14.112 1.476C14.5973 1.476 15.0453 1.63467 15.456 1.952C15.8667 2.25067 16.128 2.54933 16.24 2.848L19.46 12.564L22.54 3.156C22.6893 2.72667 22.8107 2.40933 22.904 2.204C22.9973 1.99867 23.1653 1.80267 23.408 1.616C23.6693 1.41067 23.9867 1.308 24.36 1.308C24.7333 1.308 25.172 1.40133 25.676 1.588ZM28.245 9.708C28.245 9.27867 28.2543 8.96133 28.273 8.756C28.3103 8.532 28.3943 8.28 28.525 8C28.7863 7.51467 29.5143 7.272 30.709 7.272C31.605 7.272 32.2397 7.43067 32.613 7.748C32.9303 8.00933 33.0983 8.41067 33.117 8.952C33.1357 9.13867 33.145 9.40933 33.145 9.764V19.564C33.145 19.9933 33.1263 20.32 33.089 20.544C33.0703 20.7493 32.9863 20.992 32.837 21.272C32.5943 21.7573 31.8757 22 30.681 22C29.505 22 28.7863 21.748 28.525 21.244C28.3943 20.964 28.3103 20.7213 28.273 20.516C28.2543 20.3107 28.245 19.984 28.245 19.536V9.708ZM32.837 4.528C32.7063 4.78933 32.4637 4.976 32.109 5.088C31.7543 5.2 31.2783 5.256 30.681 5.256C30.1023 5.256 29.6357 5.2 29.281 5.088C28.9263 4.976 28.6743 4.78 28.525 4.5C28.3943 4.22 28.3103 3.97733 28.273 3.772C28.2543 3.548 28.245 3.22133 28.245 2.792C28.245 2.36267 28.2543 2.04533 28.273 1.84C28.3103 1.616 28.3943 1.37333 28.525 1.112C28.7863 0.607998 29.5143 0.355998 30.709 0.355998C31.885 0.355998 32.5943 0.607998 32.837 1.112C32.9863 1.392 33.0703 1.644 33.089 1.868C33.1263 2.07333 33.145 2.39067 33.145 2.82C33.145 3.24933 33.1263 3.576 33.089 3.8C33.0703 4.00533 32.9863 4.248 32.837 4.528ZM43.5857 7.244C45.4524 7.244 47.0017 7.96267 48.2337 9.4C49.4844 10.8187 50.1097 12.5547 50.1097 14.608V19.536C50.1097 19.9653 50.0911 20.292 50.0537 20.516C50.0351 20.7213 49.9604 20.9547 49.8297 21.216C49.5684 21.72 48.8404 21.972 47.6457 21.972C46.3204 21.972 45.5551 21.6267 45.3497 20.936C45.2377 20.6187 45.1817 20.1427 45.1817 19.508V14.58C45.1817 13.8147 44.9577 13.2173 44.5097 12.788C44.0804 12.3587 43.4924 12.144 42.7457 12.144C42.0177 12.144 41.4204 12.368 40.9537 12.816C40.5057 13.264 40.2817 13.852 40.2817 14.58V19.536C40.2817 19.9653 40.2631 20.292 40.2257 20.516C40.2071 20.7213 40.1231 20.9547 39.9737 21.216C39.7311 21.72 39.0124 21.972 37.8177 21.972C36.6417 21.972 35.9231 21.72 35.6617 21.216C35.5311 20.936 35.4471 20.6933 35.4097 20.488C35.3911 20.264 35.3817 19.9373 35.3817 19.508V9.596C35.3817 9.18533 35.3911 8.87733 35.4097 8.672C35.4471 8.448 35.5404 8.20533 35.6897 7.944C35.9511 7.47733 36.6697 7.244 37.8457 7.244C38.9844 7.244 39.6844 7.45867 39.9457 7.888C40.1324 8.20533 40.2257 8.588 40.2257 9.036C40.3004 8.90533 40.4684 8.71867 40.7297 8.476C40.9911 8.23333 41.2431 8.03733 41.4857 7.888C42.1204 7.45867 42.8204 7.244 43.5857 7.244ZM60.5662 7.244C62.4329 7.244 63.9822 7.96267 65.2142 9.4C66.4649 10.8187 67.0902 12.5547 67.0902 14.608V19.536C67.0902 19.9653 67.0715 20.292 67.0342 20.516C67.0155 20.7213 66.9409 20.9547 66.8102 21.216C66.5489 21.72 65.8209 21.972 64.6262 21.972C63.3009 21.972 62.5355 21.6267 62.3302 20.936C62.2182 20.6187 62.1622 20.1427 62.1622 19.508V14.58C62.1622 13.8147 61.9382 13.2173 61.4902 12.788C61.0609 12.3587 60.4729 12.144 59.7262 12.144C58.9982 12.144 58.4009 12.368 57.9342 12.816C57.4862 13.264 57.2622 13.852 57.2622 14.58V19.536C57.2622 19.9653 57.2435 20.292 57.2062 20.516C57.1875 20.7213 57.1035 20.9547 56.9542 21.216C56.7115 21.72 55.9929 21.972 54.7982 21.972C53.6222 21.972 52.9035 21.72 52.6422 21.216C52.5115 20.936 52.4275 20.6933 52.3902 20.488C52.3715 20.264 52.3622 19.9373 52.3622 19.508V9.596C52.3622 9.18533 52.3715 8.87733 52.3902 8.672C52.4275 8.448 52.5209 8.20533 52.6702 7.944C52.9315 7.47733 53.6502 7.244 54.8262 7.244C55.9649 7.244 56.6649 7.45867 56.9262 7.888C57.1129 8.20533 57.2062 8.588 57.2062 9.036C57.2809 8.90533 57.4489 8.71867 57.7102 8.476C57.9715 8.23333 58.2235 8.03733 58.4662 7.888C59.1009 7.45867 59.8009 7.244 60.5662 7.244ZM69.3427 9.708C69.3427 9.27867 69.352 8.96133 69.3707 8.756C69.408 8.532 69.492 8.28 69.6227 8C69.884 7.51467 70.612 7.272 71.8067 7.272C72.7027 7.272 73.3373 7.43067 73.7107 7.748C74.028 8.00933 74.196 8.41067 74.2147 8.952C74.2333 9.13867 74.2427 9.40933 74.2427 9.764V19.564C74.2427 19.9933 74.224 20.32 74.1867 20.544C74.168 20.7493 74.084 20.992 73.9347 21.272C73.692 21.7573 72.9733 22 71.7787 22C70.6027 22 69.884 21.748 69.6227 21.244C69.492 20.964 69.408 20.7213 69.3707 20.516C69.352 20.3107 69.3427 19.984 69.3427 19.536V9.708ZM73.9347 4.528C73.804 4.78933 73.5613 4.976 73.2067 5.088C72.852 5.2 72.376 5.256 71.7787 5.256C71.2 5.256 70.7333 5.2 70.3787 5.088C70.024 4.976 69.772 4.78 69.6227 4.5C69.492 4.22 69.408 3.97733 69.3707 3.772C69.352 3.548 69.3427 3.22133 69.3427 2.792C69.3427 2.36267 69.352 2.04533 69.3707 1.84C69.408 1.616 69.492 1.37333 69.6227 1.112C69.884 0.607998 70.612 0.355998 71.8067 0.355998C72.9827 0.355998 73.692 0.607998 73.9347 1.112C74.084 1.392 74.168 1.644 74.1867 1.868C74.224 2.07333 74.2427 2.39067 74.2427 2.82C74.2427 3.24933 74.224 3.576 74.1867 3.8C74.168 4.00533 74.084 4.248 73.9347 4.528ZM84.6834 7.244C86.55 7.244 88.0994 7.96267 89.3314 9.4C90.582 10.8187 91.2074 12.5547 91.2074 14.608V19.536C91.2074 19.9653 91.1887 20.292 91.1514 20.516C91.1327 20.7213 91.058 20.9547 90.9274 21.216C90.666 21.72 89.938 21.972 88.7434 21.972C87.418 21.972 86.6527 21.6267 86.4474 20.936C86.3354 20.6187 86.2794 20.1427 86.2794 19.508V14.58C86.2794 13.8147 86.0554 13.2173 85.6074 12.788C85.178 12.3587 84.59 12.144 83.8434 12.144C83.1154 12.144 82.518 12.368 82.0514 12.816C81.6034 13.264 81.3794 13.852 81.3794 14.58V19.536C81.3794 19.9653 81.3607 20.292 81.3234 20.516C81.3047 20.7213 81.2207 20.9547 81.0714 21.216C80.8287 21.72 80.11 21.972 78.9154 21.972C77.7394 21.972 77.0207 21.72 76.7594 21.216C76.6287 20.936 76.5447 20.6933 76.5074 20.488C76.4887 20.264 76.4794 19.9373 76.4794 19.508V9.596C76.4794 9.18533 76.4887 8.87733 76.5074 8.672C76.5447 8.448 76.638 8.20533 76.7874 7.944C77.0487 7.47733 77.7674 7.244 78.9434 7.244C80.082 7.244 80.782 7.45867 81.0434 7.888C81.23 8.20533 81.3234 8.588 81.3234 9.036C81.398 8.90533 81.566 8.71867 81.8274 8.476C82.0887 8.23333 82.3407 8.03733 82.5834 7.888C83.218 7.45867 83.918 7.244 84.6834 7.244ZM90.921 1.448H106.489C107.086 1.448 107.525 1.52267 107.805 1.672C108.085 1.80267 108.272 2.01733 108.365 2.316C108.458 2.61467 108.505 3.00667 108.505 3.492C108.505 3.97733 108.458 4.36933 108.365 4.668C108.272 4.948 108.113 5.144 107.889 5.256C107.553 5.424 107.077 5.508 106.461 5.508H101.113V19.592C101.113 20.0213 101.094 20.3387 101.057 20.544C101.038 20.7493 100.954 20.992 100.805 21.272C100.674 21.5333 100.432 21.72 100.077 21.832C99.7224 21.944 99.2557 22 98.677 22C98.0984 22 97.6317 21.944 97.277 21.832C96.941 21.72 96.6984 21.5333 96.549 21.272C96.4184 20.992 96.3344 20.7493 96.297 20.544C96.2784 20.32 96.269 19.9933 96.269 19.564V5.508H90.893C90.2957 5.508 89.857 5.44267 89.577 5.312C89.297 5.16267 89.1104 4.93867 89.017 4.64C88.9237 4.34133 88.877 3.94933 88.877 3.464C88.877 2.97867 88.9237 2.596 89.017 2.316C89.1104 2.01733 89.269 1.812 89.493 1.7C89.829 1.532 90.305 1.448 90.921 1.448ZM110.058 9.708C110.058 9.27867 110.067 8.96133 110.086 8.756C110.123 8.532 110.207 8.28 110.338 8C110.599 7.51467 111.327 7.272 112.522 7.272C113.418 7.272 114.052 7.43067 114.426 7.748C114.743 8.00933 114.911 8.41067 114.93 8.952C114.948 9.13867 114.958 9.40933 114.958 9.764V19.564C114.958 19.9933 114.939 20.32 114.902 20.544C114.883 20.7493 114.799 20.992 114.65 21.272C114.407 21.7573 113.688 22 112.494 22C111.318 22 110.599 21.748 110.338 21.244C110.207 20.964 110.123 20.7213 110.086 20.516C110.067 20.3107 110.058 19.984 110.058 19.536V9.708ZM114.65 4.528C114.519 4.78933 114.276 4.976 113.922 5.088C113.567 5.2 113.091 5.256 112.494 5.256C111.915 5.256 111.448 5.2 111.094 5.088C110.739 4.976 110.487 4.78 110.338 4.5C110.207 4.22 110.123 3.97733 110.086 3.772C110.067 3.548 110.058 3.22133 110.058 2.792C110.058 2.36267 110.067 2.04533 110.086 1.84C110.123 1.616 110.207 1.37333 110.338 1.112C110.599 0.607998 111.327 0.355998 112.522 0.355998C113.698 0.355998 114.407 0.607998 114.65 1.112C114.799 1.392 114.883 1.644 114.902 1.868C114.939 2.07333 114.958 2.39067 114.958 2.82C114.958 3.24933 114.939 3.576 114.902 3.8C114.883 4.00533 114.799 4.248 114.65 4.528ZM117.194 26.004V9.652C117.194 9.22267 117.204 8.90533 117.222 8.7C117.26 8.49467 117.344 8.26133 117.474 8C117.736 7.496 118.361 7.244 119.35 7.244C120.34 7.244 121.002 7.37467 121.338 7.636C121.693 7.87867 121.898 8.24267 121.954 8.728C122.664 7.75733 123.774 7.272 125.286 7.272C126.817 7.272 128.264 7.99067 129.626 9.428C130.989 10.8653 131.67 12.536 131.67 14.44C131.67 16.344 130.989 18.0147 129.626 19.452C128.282 20.8893 126.845 21.608 125.314 21.608C123.784 21.608 122.673 21.1787 121.982 20.32V25.976C121.982 26.4053 121.964 26.7227 121.926 26.928C121.908 27.1333 121.824 27.3667 121.674 27.628C121.544 27.908 121.31 28.104 120.974 28.216C120.638 28.328 120.181 28.384 119.602 28.384C119.024 28.384 118.557 28.328 118.202 28.216C117.866 28.104 117.624 27.9173 117.474 27.656C117.344 27.3947 117.26 27.1613 117.222 26.956C117.204 26.7507 117.194 26.4333 117.194 26.004ZM122.738 12.816C122.309 13.32 122.094 13.8707 122.094 14.468C122.094 15.0653 122.309 15.616 122.738 16.12C123.186 16.6053 123.746 16.848 124.418 16.848C125.109 16.848 125.688 16.6053 126.154 16.12C126.64 15.6347 126.882 15.084 126.882 14.468C126.882 13.852 126.658 13.3013 126.21 12.816C125.762 12.312 125.174 12.06 124.446 12.06C123.737 12.06 123.168 12.312 122.738 12.816ZM133.603 20.684C133.248 20.46 133.071 20.1053 133.071 19.62C133.071 19.1347 133.426 18.3973 134.135 17.408C134.34 17.0907 134.667 16.932 135.115 16.932C135.582 16.932 136.207 17.1653 136.991 17.632C137.775 18.08 138.484 18.304 139.119 18.304C140.258 18.304 140.827 18.08 140.827 17.632C140.827 17.2773 140.202 17.016 138.951 16.848C137.775 16.68 136.608 16.2413 135.451 15.532C134.91 15.196 134.462 14.6733 134.107 13.964C133.752 13.236 133.575 12.3773 133.575 11.388C133.575 8.43867 135.6 6.964 139.651 6.964C140.976 6.964 142.339 7.28133 143.739 7.916C144.392 8.21467 144.719 8.588 144.719 9.036C144.719 9.484 144.514 10.0347 144.103 10.688C143.692 11.3413 143.272 11.668 142.843 11.668C142.619 11.668 142.199 11.528 141.583 11.248C140.986 10.968 140.332 10.828 139.623 10.828C138.522 10.828 137.971 11.0333 137.971 11.444C137.971 12.004 138.606 12.368 139.875 12.536C141.107 12.6667 142.302 13.0213 143.459 13.6C144 13.8613 144.448 14.3187 144.803 14.972C145.176 15.6067 145.363 16.4093 145.363 17.38C145.363 18.3507 145.176 19.1813 144.803 19.872C144.448 20.544 143.944 21.048 143.291 21.384C142.096 21.9627 140.594 22.252 138.783 22.252C136.991 22.252 135.264 21.7293 133.603 20.684Z" fill="black"/>
<path d="M169.42 5.62C169.906 6.60933 170.148 7.71067 170.148 8.924C170.148 10.1373 169.906 11.2387 169.42 12.228C168.935 13.1987 168.31 13.9733 167.544 14.552C165.995 15.7467 164.39 16.344 162.728 16.344H159.228V19.508C159.228 19.9373 159.21 20.264 159.172 20.488C159.154 20.6933 159.07 20.936 158.92 21.216C158.659 21.72 157.931 21.972 156.736 21.972C155.43 21.972 154.664 21.6267 154.44 20.936C154.328 20.6187 154.272 20.1333 154.272 19.48V3.94C154.272 3.51067 154.282 3.19333 154.3 2.988C154.338 2.764 154.431 2.512 154.58 2.232C154.842 1.728 155.57 1.476 156.764 1.476H162.756C164.399 1.476 165.995 2.07333 167.544 3.268C168.31 3.84667 168.935 4.63067 169.42 5.62ZM162.756 11.388C163.316 11.388 163.867 11.1827 164.408 10.772C164.95 10.3613 165.22 9.74533 165.22 8.924C165.22 8.10267 164.95 7.48667 164.408 7.076C163.867 6.64667 163.307 6.432 162.728 6.432H159.228V11.388H162.756ZM181.988 7.412C182.342 7.524 182.632 7.72 182.856 8C183.098 8.26133 183.22 8.69067 183.22 9.288C183.22 9.88533 183.042 10.5387 182.688 11.248C182.333 11.9573 181.82 12.312 181.148 12.312C180.812 12.312 180.485 12.2373 180.168 12.088C179.869 11.9387 179.468 11.864 178.964 11.864C178.46 11.864 177.984 12.0413 177.536 12.396C177.106 12.7507 176.892 13.18 176.892 13.684V19.564C176.892 19.9933 176.873 20.32 176.836 20.544C176.817 20.7493 176.733 20.992 176.584 21.272C176.304 21.7573 175.576 22 174.4 22C173.504 22 172.86 21.8413 172.468 21.524C172.169 21.2627 172.001 20.8613 171.964 20.32C171.964 20.1333 171.964 19.8627 171.964 19.508V9.68C171.964 9.25067 171.973 8.93333 171.992 8.728C172.029 8.504 172.113 8.26133 172.244 8C172.505 7.496 173.233 7.244 174.428 7.244C175.548 7.244 176.248 7.45867 176.528 7.888C176.733 8.18667 176.836 8.49467 176.836 8.812C176.929 8.68133 177.06 8.52267 177.228 8.336C177.414 8.14933 177.797 7.89733 178.376 7.58C178.954 7.26267 179.458 7.104 179.888 7.104C180.336 7.104 180.709 7.132 181.008 7.188C181.306 7.22533 181.633 7.3 181.988 7.412ZM198.137 12.872C198.137 14.0107 197.848 14.86 197.269 15.42C196.709 15.9613 196.084 16.232 195.393 16.232H188.757C188.757 16.7547 189.065 17.1933 189.681 17.548C190.297 17.9027 190.913 18.08 191.529 18.08C192.612 18.08 193.461 17.968 194.077 17.744L194.385 17.632C194.833 17.4267 195.206 17.324 195.505 17.324C196.102 17.324 196.616 17.744 197.045 18.584C197.288 19.088 197.409 19.5173 197.409 19.872C197.409 21.5333 195.421 22.364 191.445 22.364C190.064 22.364 188.832 22.1307 187.749 21.664C186.685 21.1787 185.854 20.544 185.257 19.76C184.081 18.248 183.493 16.5587 183.493 14.692C183.493 12.34 184.249 10.464 185.761 9.064C187.292 7.64533 189.196 6.936 191.473 6.936C194.068 6.936 195.972 7.85067 197.185 9.68C197.82 10.6507 198.137 11.7147 198.137 12.872ZM192.229 13.684C192.938 13.684 193.293 13.3853 193.293 12.788C193.293 12.3587 193.125 12.0133 192.789 11.752C192.472 11.4907 192.005 11.36 191.389 11.36C190.792 11.36 190.194 11.612 189.597 12.116C189 12.6013 188.701 13.124 188.701 13.684H192.229ZM209.848 1.112C209.997 0.831999 210.249 0.635999 210.604 0.523999C210.958 0.411999 211.425 0.355998 212.004 0.355998C212.601 0.355998 213.077 0.411999 213.432 0.523999C213.786 0.635999 214.029 0.831999 214.16 1.112C214.309 1.392 214.393 1.644 214.412 1.868C214.449 2.07333 214.468 2.39067 214.468 2.82V19.536C214.468 19.9653 214.449 20.292 214.412 20.516C214.393 20.7213 214.309 20.9547 214.16 21.216C213.88 21.72 213.086 21.972 211.78 21.972C210.492 21.972 209.773 21.5147 209.624 20.6C208.84 21.496 207.748 21.944 206.348 21.944C204.668 21.944 203.137 21.216 201.756 19.76C200.374 18.2853 199.684 16.5773 199.684 14.636C199.684 12.676 200.374 10.9587 201.756 9.484C203.156 8.00933 204.686 7.272 206.348 7.272C207.729 7.272 208.802 7.73867 209.568 8.672V2.792C209.568 2.36267 209.577 2.04533 209.596 1.84C209.633 1.616 209.717 1.37333 209.848 1.112ZM205.312 16.316C205.797 16.82 206.385 17.072 207.076 17.072C207.766 17.072 208.336 16.82 208.784 16.316C209.25 15.812 209.484 15.2613 209.484 14.664C209.484 14.048 209.26 13.4787 208.812 12.956C208.382 12.4333 207.794 12.172 207.048 12.172C206.301 12.172 205.704 12.4333 205.256 12.956C204.808 13.46 204.584 14.02 204.584 14.636C204.584 15.252 204.826 15.812 205.312 16.316ZM216.698 9.708C216.698 9.27867 216.707 8.96133 216.726 8.756C216.763 8.532 216.847 8.28 216.978 8C217.239 7.51467 217.967 7.272 219.162 7.272C220.058 7.272 220.693 7.43067 221.066 7.748C221.383 8.00933 221.551 8.41067 221.57 8.952C221.589 9.13867 221.598 9.40933 221.598 9.764V19.564C221.598 19.9933 221.579 20.32 221.542 20.544C221.523 20.7493 221.439 20.992 221.29 21.272C221.047 21.7573 220.329 22 219.134 22C217.958 22 217.239 21.748 216.978 21.244C216.847 20.964 216.763 20.7213 216.726 20.516C216.707 20.3107 216.698 19.984 216.698 19.536V9.708ZM221.29 4.528C221.159 4.78933 220.917 4.976 220.562 5.088C220.207 5.2 219.731 5.256 219.134 5.256C218.555 5.256 218.089 5.2 217.734 5.088C217.379 4.976 217.127 4.78 216.978 4.5C216.847 4.22 216.763 3.97733 216.726 3.772C216.707 3.548 216.698 3.22133 216.698 2.792C216.698 2.36267 216.707 2.04533 216.726 1.84C216.763 1.616 216.847 1.37333 216.978 1.112C217.239 0.607998 217.967 0.355998 219.162 0.355998C220.338 0.355998 221.047 0.607998 221.29 1.112C221.439 1.392 221.523 1.644 221.542 1.868C221.579 2.07333 221.598 2.39067 221.598 2.82C221.598 3.24933 221.579 3.576 221.542 3.8C221.523 4.00533 221.439 4.248 221.29 4.528ZM228.455 14.636C228.455 15.42 228.716 16.036 229.239 16.484C229.762 16.9133 230.312 17.128 230.891 17.128C231.488 17.128 232.039 16.96 232.543 16.624C233.066 16.2693 233.486 16.092 233.803 16.092C234.363 16.092 235.044 16.5867 235.847 17.576C236.276 18.1173 236.491 18.6027 236.491 19.032C236.491 19.7413 235.978 20.404 234.951 21.02C233.887 21.7667 232.58 22.14 231.031 22.14C229.295 22.14 227.624 21.5147 226.019 20.264C225.254 19.6667 224.628 18.8733 224.143 17.884C223.658 16.876 223.415 15.7747 223.415 14.58C223.415 13.3667 223.658 12.2747 224.143 11.304C224.628 10.3147 225.254 9.52133 226.019 8.924C227.568 7.692 229.22 7.076 230.975 7.076C231.684 7.076 232.375 7.17867 233.047 7.384C233.719 7.57067 234.214 7.75733 234.531 7.944L234.979 8.224C235.315 8.448 235.576 8.62533 235.763 8.756C236.248 9.12933 236.491 9.55867 236.491 10.044C236.491 10.5107 236.295 11.0427 235.903 11.64C235.231 12.6667 234.587 13.18 233.971 13.18C233.616 13.18 233.112 12.9747 232.459 12.564C232.123 12.2467 231.638 12.088 231.003 12.088C230.387 12.088 229.808 12.312 229.267 12.76C228.726 13.208 228.455 13.8333 228.455 14.636ZM246.594 12.2L244.774 12.088V15.952C244.774 16.456 244.849 16.82 244.998 17.044C245.166 17.268 245.465 17.38 245.894 17.38C246.342 17.38 246.678 17.3987 246.902 17.436C247.145 17.4547 247.397 17.5387 247.658 17.688C248.088 17.9307 248.302 18.556 248.302 19.564C248.302 20.74 248.041 21.4587 247.518 21.72C247.238 21.8507 246.986 21.9347 246.762 21.972C246.557 21.9907 246.249 22 245.838 22C243.897 22 242.422 21.5613 241.414 20.684C240.406 19.8067 239.902 18.3227 239.902 16.232V12.088C239.548 12.144 239.165 12.172 238.754 12.172C238.344 12.172 237.998 12.0133 237.718 11.696C237.457 11.3787 237.326 10.8373 237.326 10.072C237.326 9.30667 237.373 8.756 237.466 8.42C237.56 8.06533 237.69 7.81333 237.858 7.664C238.157 7.42133 238.53 7.3 238.978 7.3L239.902 7.412V4.528C239.902 4.09867 239.912 3.78133 239.93 3.576C239.968 3.37067 240.061 3.14667 240.21 2.904C240.453 2.43733 241.172 2.204 242.366 2.204C243.636 2.204 244.392 2.54933 244.634 3.24C244.728 3.53867 244.774 4.01467 244.774 4.668V7.412C245.596 7.33733 246.212 7.3 246.622 7.3C247.052 7.3 247.369 7.31867 247.574 7.356C247.798 7.37467 248.05 7.45867 248.33 7.608C248.816 7.85067 249.058 8.56933 249.058 9.764C249.058 10.94 248.806 11.6587 248.302 11.92C248.022 12.0507 247.77 12.1347 247.546 12.172C247.341 12.1907 247.024 12.2 246.594 12.2ZM250.716 20.684C250.362 20.46 250.184 20.1053 250.184 19.62C250.184 19.1347 250.539 18.3973 251.248 17.408C251.454 17.0907 251.78 16.932 252.228 16.932C252.695 16.932 253.32 17.1653 254.104 17.632C254.888 18.08 255.598 18.304 256.232 18.304C257.371 18.304 257.94 18.08 257.94 17.632C257.94 17.2773 257.315 17.016 256.064 16.848C254.888 16.68 253.722 16.2413 252.564 15.532C252.023 15.196 251.575 14.6733 251.22 13.964C250.866 13.236 250.688 12.3773 250.688 11.388C250.688 8.43867 252.714 6.964 256.764 6.964C258.09 6.964 259.452 7.28133 260.852 7.916C261.506 8.21467 261.832 8.588 261.832 9.036C261.832 9.484 261.627 10.0347 261.216 10.688C260.806 11.3413 260.386 11.668 259.956 11.668C259.732 11.668 259.312 11.528 258.696 11.248C258.099 10.968 257.446 10.828 256.736 10.828C255.635 10.828 255.084 11.0333 255.084 11.444C255.084 12.004 255.719 12.368 256.988 12.536C258.22 12.6667 259.415 13.0213 260.572 13.6C261.114 13.8613 261.562 14.3187 261.916 14.972C262.29 15.6067 262.476 16.4093 262.476 17.38C262.476 18.3507 262.29 19.1813 261.916 19.872C261.562 20.544 261.058 21.048 260.404 21.384C259.21 21.9627 257.707 22.252 255.896 22.252C254.104 22.252 252.378 21.7293 250.716 20.684Z" fill="#FF902A"/>
</svg>
