<svg width="169" height="19" viewBox="0 0 169 19" fill="none" xmlns="http://www.w3.org/2000/svg">
<path d="M16.506 0.877999C17.31 1.166 17.712 1.55 17.712 2.03C17.712 2.186 17.64 2.48 17.496 2.912L14.04 12.902C14.016 12.986 13.974 13.088 13.914 13.208C13.854 13.328 13.692 13.49 13.428 13.694C13.176 13.886 12.87 13.982 12.51 13.982C12.162 13.982 11.856 13.886 11.592 13.694C11.34 13.49 11.172 13.292 11.088 13.1L8.982 6.89C7.65 10.826 6.972 12.83 6.948 12.902C6.924 12.974 6.87 13.076 6.786 13.208C6.702 13.34 6.606 13.46 6.498 13.568C6.222 13.844 5.892 13.982 5.508 13.982C5.124 13.982 4.806 13.892 4.554 13.712C4.314 13.532 4.152 13.352 4.068 13.172L3.942 12.902L0.468 2.912C0.336 2.516 0.27 2.222 0.27 2.03C0.27 1.55 0.672 1.172 1.476 0.895999C1.824 0.775999 2.136 0.715999 2.412 0.715999C2.7 0.715999 2.916 0.811999 3.06 1.004C3.216 1.196 3.354 1.49 3.474 1.886L5.454 7.898L7.416 1.976C7.584 1.472 7.89 1.124 8.334 0.932C8.526 0.847999 8.772 0.805999 9.072 0.805999C9.384 0.805999 9.672 0.907999 9.936 1.112C10.2 1.304 10.368 1.496 10.44 1.688L12.51 7.934L14.49 1.886C14.586 1.61 14.664 1.406 14.724 1.274C14.784 1.142 14.892 1.016 15.048 0.895999C15.216 0.763999 15.42 0.698 15.66 0.698C15.9 0.698 16.182 0.758 16.506 0.877999ZM18.1575 6.098C18.1575 5.822 18.1635 5.618 18.1755 5.486C18.1995 5.342 18.2535 5.18 18.3375 5C18.5055 4.688 18.9735 4.532 19.7415 4.532C20.3175 4.532 20.7255 4.634 20.9655 4.838C21.1695 5.006 21.2775 5.264 21.2895 5.612C21.3015 5.732 21.3075 5.906 21.3075 6.134V12.434C21.3075 12.71 21.2955 12.92 21.2715 13.064C21.2595 13.196 21.2055 13.352 21.1095 13.532C20.9535 13.844 20.4915 14 19.7235 14C18.9675 14 18.5055 13.838 18.3375 13.514C18.2535 13.334 18.1995 13.178 18.1755 13.046C18.1635 12.914 18.1575 12.704 18.1575 12.416V6.098ZM21.1095 2.768C21.0255 2.936 20.8695 3.056 20.6415 3.128C20.4135 3.2 20.1075 3.236 19.7235 3.236C19.3515 3.236 19.0515 3.2 18.8235 3.128C18.5955 3.056 18.4335 2.93 18.3375 2.75C18.2535 2.57 18.1995 2.414 18.1755 2.282C18.1635 2.138 18.1575 1.928 18.1575 1.652C18.1575 1.376 18.1635 1.172 18.1755 1.04C18.1995 0.895999 18.2535 0.739999 18.3375 0.571999C18.5055 0.247999 18.9735 0.0859989 19.7415 0.0859989C20.4975 0.0859989 20.9535 0.247999 21.1095 0.571999C21.2055 0.752 21.2595 0.914 21.2715 1.058C21.2955 1.19 21.3075 1.394 21.3075 1.67C21.3075 1.946 21.2955 2.156 21.2715 2.3C21.2595 2.432 21.2055 2.588 21.1095 2.768ZM28.0194 4.514C29.2194 4.514 30.2154 4.976 31.0074 5.9C31.8114 6.812 32.2134 7.928 32.2134 9.248V12.416C32.2134 12.692 32.2014 12.902 32.1774 13.046C32.1654 13.178 32.1174 13.328 32.0334 13.496C31.8654 13.82 31.3974 13.982 30.6294 13.982C29.7774 13.982 29.2854 13.76 29.1534 13.316C29.0814 13.112 29.0454 12.806 29.0454 12.398V9.23C29.0454 8.738 28.9014 8.354 28.6134 8.078C28.3374 7.802 27.9594 7.664 27.4794 7.664C27.0114 7.664 26.6274 7.808 26.3274 8.096C26.0394 8.384 25.8954 8.762 25.8954 9.23V12.416C25.8954 12.692 25.8834 12.902 25.8594 13.046C25.8474 13.178 25.7934 13.328 25.6974 13.496C25.5414 13.82 25.0794 13.982 24.3114 13.982C23.5554 13.982 23.0934 13.82 22.9254 13.496C22.8414 13.316 22.7874 13.16 22.7634 13.028C22.7514 12.884 22.7454 12.674 22.7454 12.398V6.026C22.7454 5.762 22.7514 5.564 22.7634 5.432C22.7874 5.288 22.8474 5.132 22.9434 4.964C23.1114 4.664 23.5734 4.514 24.3294 4.514C25.0614 4.514 25.5114 4.652 25.6794 4.928C25.7994 5.132 25.8594 5.378 25.8594 5.666C25.9074 5.582 26.0154 5.462 26.1834 5.306C26.3514 5.15 26.5134 5.024 26.6694 4.928C27.0774 4.652 27.5274 4.514 28.0194 4.514ZM38.9354 4.514C40.1354 4.514 41.1314 4.976 41.9234 5.9C42.7274 6.812 43.1294 7.928 43.1294 9.248V12.416C43.1294 12.692 43.1174 12.902 43.0934 13.046C43.0814 13.178 43.0334 13.328 42.9494 13.496C42.7814 13.82 42.3134 13.982 41.5454 13.982C40.6934 13.982 40.2014 13.76 40.0694 13.316C39.9974 13.112 39.9614 12.806 39.9614 12.398V9.23C39.9614 8.738 39.8174 8.354 39.5294 8.078C39.2534 7.802 38.8754 7.664 38.3954 7.664C37.9274 7.664 37.5434 7.808 37.2434 8.096C36.9554 8.384 36.8114 8.762 36.8114 9.23V12.416C36.8114 12.692 36.7994 12.902 36.7754 13.046C36.7634 13.178 36.7094 13.328 36.6134 13.496C36.4574 13.82 35.9954 13.982 35.2274 13.982C34.4714 13.982 34.0094 13.82 33.8414 13.496C33.7574 13.316 33.7034 13.16 33.6794 13.028C33.6674 12.884 33.6614 12.674 33.6614 12.398V6.026C33.6614 5.762 33.6674 5.564 33.6794 5.432C33.7034 5.288 33.7634 5.132 33.8594 4.964C34.0274 4.664 34.4894 4.514 35.2454 4.514C35.9774 4.514 36.4274 4.652 36.5954 4.928C36.7154 5.132 36.7754 5.378 36.7754 5.666C36.8234 5.582 36.9314 5.462 37.0994 5.306C37.2674 5.15 37.4294 5.024 37.5854 4.928C37.9934 4.652 38.4434 4.514 38.9354 4.514ZM44.5774 6.098C44.5774 5.822 44.5834 5.618 44.5954 5.486C44.6194 5.342 44.6734 5.18 44.7574 5C44.9254 4.688 45.3934 4.532 46.1614 4.532C46.7374 4.532 47.1454 4.634 47.3854 4.838C47.5894 5.006 47.6974 5.264 47.7094 5.612C47.7214 5.732 47.7274 5.906 47.7274 6.134V12.434C47.7274 12.71 47.7154 12.92 47.6914 13.064C47.6794 13.196 47.6254 13.352 47.5294 13.532C47.3734 13.844 46.9114 14 46.1434 14C45.3874 14 44.9254 13.838 44.7574 13.514C44.6734 13.334 44.6194 13.178 44.5954 13.046C44.5834 12.914 44.5774 12.704 44.5774 12.416V6.098ZM47.5294 2.768C47.4454 2.936 47.2894 3.056 47.0614 3.128C46.8334 3.2 46.5274 3.236 46.1434 3.236C45.7714 3.236 45.4714 3.2 45.2434 3.128C45.0154 3.056 44.8534 2.93 44.7574 2.75C44.6734 2.57 44.6194 2.414 44.5954 2.282C44.5834 2.138 44.5774 1.928 44.5774 1.652C44.5774 1.376 44.5834 1.172 44.5954 1.04C44.6194 0.895999 44.6734 0.739999 44.7574 0.571999C44.9254 0.247999 45.3934 0.0859989 46.1614 0.0859989C46.9174 0.0859989 47.3734 0.247999 47.5294 0.571999C47.6254 0.752 47.6794 0.914 47.6914 1.058C47.7154 1.19 47.7274 1.394 47.7274 1.67C47.7274 1.946 47.7154 2.156 47.6914 2.3C47.6794 2.432 47.6254 2.588 47.5294 2.768ZM54.4393 4.514C55.6393 4.514 56.6353 4.976 57.4273 5.9C58.2313 6.812 58.6333 7.928 58.6333 9.248V12.416C58.6333 12.692 58.6213 12.902 58.5973 13.046C58.5853 13.178 58.5373 13.328 58.4533 13.496C58.2853 13.82 57.8173 13.982 57.0493 13.982C56.1973 13.982 55.7053 13.76 55.5733 13.316C55.5013 13.112 55.4653 12.806 55.4653 12.398V9.23C55.4653 8.738 55.3213 8.354 55.0333 8.078C54.7573 7.802 54.3793 7.664 53.8993 7.664C53.4313 7.664 53.0473 7.808 52.7473 8.096C52.4593 8.384 52.3153 8.762 52.3153 9.23V12.416C52.3153 12.692 52.3033 12.902 52.2793 13.046C52.2673 13.178 52.2133 13.328 52.1173 13.496C51.9613 13.82 51.4993 13.982 50.7313 13.982C49.9753 13.982 49.5133 13.82 49.3453 13.496C49.2613 13.316 49.2073 13.16 49.1833 13.028C49.1713 12.884 49.1653 12.674 49.1653 12.398V6.026C49.1653 5.762 49.1713 5.564 49.1833 5.432C49.2073 5.288 49.2673 5.132 49.3633 4.964C49.5313 4.664 49.9933 4.514 50.7493 4.514C51.4813 4.514 51.9313 4.652 52.0993 4.928C52.2193 5.132 52.2793 5.378 52.2793 5.666C52.3273 5.582 52.4353 5.462 52.6033 5.306C52.7713 5.15 52.9333 5.024 53.0893 4.928C53.4973 4.652 53.9473 4.514 54.4393 4.514ZM58.4492 0.788H68.4572C68.8412 0.788 69.1232 0.836 69.3032 0.932C69.4832 1.016 69.6032 1.154 69.6632 1.346C69.7232 1.538 69.7532 1.79 69.7532 2.102C69.7532 2.414 69.7232 2.666 69.6632 2.858C69.6032 3.038 69.5012 3.164 69.3572 3.236C69.1412 3.344 68.8352 3.398 68.4392 3.398H65.0012V12.452C65.0012 12.728 64.9892 12.932 64.9652 13.064C64.9532 13.196 64.8992 13.352 64.8032 13.532C64.7192 13.7 64.5632 13.82 64.3352 13.892C64.1072 13.964 63.8072 14 63.4352 14C63.0632 14 62.7632 13.964 62.5352 13.892C62.3192 13.82 62.1632 13.7 62.0672 13.532C61.9832 13.352 61.9292 13.196 61.9052 13.064C61.8932 12.92 61.8872 12.71 61.8872 12.434V3.398H58.4312C58.0472 3.398 57.7652 3.356 57.5852 3.272C57.4052 3.176 57.2852 3.032 57.2252 2.84C57.1652 2.648 57.1352 2.396 57.1352 2.084C57.1352 1.772 57.1652 1.526 57.2252 1.346C57.2852 1.154 57.3872 1.022 57.5312 0.95C57.7472 0.842 58.0532 0.788 58.4492 0.788ZM70.7513 6.098C70.7513 5.822 70.7573 5.618 70.7693 5.486C70.7933 5.342 70.8473 5.18 70.9313 5C71.0993 4.688 71.5673 4.532 72.3353 4.532C72.9113 4.532 73.3193 4.634 73.5593 4.838C73.7633 5.006 73.8713 5.264 73.8833 5.612C73.8953 5.732 73.9013 5.906 73.9013 6.134V12.434C73.9013 12.71 73.8893 12.92 73.8653 13.064C73.8533 13.196 73.7993 13.352 73.7033 13.532C73.5473 13.844 73.0853 14 72.3173 14C71.5613 14 71.0993 13.838 70.9313 13.514C70.8473 13.334 70.7933 13.178 70.7693 13.046C70.7573 12.914 70.7513 12.704 70.7513 12.416V6.098ZM73.7033 2.768C73.6193 2.936 73.4633 3.056 73.2353 3.128C73.0073 3.2 72.7013 3.236 72.3173 3.236C71.9453 3.236 71.6453 3.2 71.4173 3.128C71.1893 3.056 71.0273 2.93 70.9313 2.75C70.8473 2.57 70.7933 2.414 70.7693 2.282C70.7573 2.138 70.7513 1.928 70.7513 1.652C70.7513 1.376 70.7573 1.172 70.7693 1.04C70.7933 0.895999 70.8473 0.739999 70.9313 0.571999C71.0993 0.247999 71.5673 0.0859989 72.3353 0.0859989C73.0913 0.0859989 73.5473 0.247999 73.7033 0.571999C73.7993 0.752 73.8533 0.914 73.8653 1.058C73.8893 1.19 73.9013 1.394 73.9013 1.67C73.9013 1.946 73.8893 2.156 73.8653 2.3C73.8533 2.432 73.7993 2.588 73.7033 2.768ZM75.3391 16.574V6.062C75.3391 5.786 75.3451 5.582 75.3571 5.45C75.3811 5.318 75.4351 5.168 75.5191 5C75.6871 4.676 76.0891 4.514 76.7251 4.514C77.3611 4.514 77.7871 4.598 78.0031 4.766C78.2311 4.922 78.3631 5.156 78.3991 5.468C78.8551 4.844 79.5691 4.532 80.5411 4.532C81.5251 4.532 82.4551 4.994 83.3311 5.918C84.2071 6.842 84.6451 7.916 84.6451 9.14C84.6451 10.364 84.2071 11.438 83.3311 12.362C82.4671 13.286 81.5431 13.748 80.5591 13.748C79.5751 13.748 78.8611 13.472 78.4171 12.92V16.556C78.4171 16.832 78.4051 17.036 78.3811 17.168C78.3691 17.3 78.3151 17.45 78.2191 17.618C78.1351 17.798 77.9851 17.924 77.7691 17.996C77.5531 18.068 77.2591 18.104 76.8871 18.104C76.5151 18.104 76.2151 18.068 75.9871 17.996C75.7711 17.924 75.6151 17.804 75.5191 17.636C75.4351 17.468 75.3811 17.318 75.3571 17.186C75.3451 17.054 75.3391 16.85 75.3391 16.574ZM78.9031 8.096C78.6271 8.42 78.4891 8.774 78.4891 9.158C78.4891 9.542 78.6271 9.896 78.9031 10.22C79.1911 10.532 79.5511 10.688 79.9831 10.688C80.4271 10.688 80.7991 10.532 81.0991 10.22C81.4111 9.908 81.5671 9.554 81.5671 9.158C81.5671 8.762 81.4231 8.408 81.1351 8.096C80.8471 7.772 80.4691 7.61 80.0011 7.61C79.5451 7.61 79.1791 7.772 78.9031 8.096ZM85.8877 13.154C85.6597 13.01 85.5457 12.782 85.5457 12.47C85.5457 12.158 85.7737 11.684 86.2297 11.048C86.3617 10.844 86.5717 10.742 86.8597 10.742C87.1597 10.742 87.5617 10.892 88.0657 11.192C88.5697 11.48 89.0257 11.624 89.4337 11.624C90.1657 11.624 90.5317 11.48 90.5317 11.192C90.5317 10.964 90.1297 10.796 89.3257 10.688C88.5697 10.58 87.8197 10.298 87.0757 9.842C86.7277 9.626 86.4397 9.29 86.2117 8.834C85.9837 8.366 85.8697 7.814 85.8697 7.178C85.8697 5.282 87.1717 4.334 89.7757 4.334C90.6277 4.334 91.5037 4.538 92.4037 4.946C92.8237 5.138 93.0337 5.378 93.0337 5.666C93.0337 5.954 92.9017 6.308 92.6377 6.728C92.3737 7.148 92.1037 7.358 91.8277 7.358C91.6837 7.358 91.4137 7.268 91.0177 7.088C90.6337 6.908 90.2137 6.818 89.7577 6.818C89.0497 6.818 88.6957 6.95 88.6957 7.214C88.6957 7.574 89.1037 7.808 89.9197 7.916C90.7117 8 91.4797 8.228 92.2237 8.6C92.5717 8.768 92.8597 9.062 93.0877 9.482C93.3277 9.89 93.4477 10.406 93.4477 11.03C93.4477 11.654 93.3277 12.188 93.0877 12.632C92.8597 13.064 92.5357 13.388 92.1157 13.604C91.3477 13.976 90.3817 14.162 89.2177 14.162C88.0657 14.162 86.9557 13.826 85.8877 13.154Z" fill="#FF902A"/>
<path d="M108.913 3.47C109.225 4.106 109.381 4.814 109.381 5.594C109.381 6.374 109.225 7.082 108.913 7.718C108.601 8.342 108.199 8.84 107.707 9.212C106.711 9.98 105.679 10.364 104.611 10.364H102.361V12.398C102.361 12.674 102.349 12.884 102.325 13.028C102.313 13.16 102.259 13.316 102.163 13.496C101.995 13.82 101.527 13.982 100.759 13.982C99.9191 13.982 99.4271 13.76 99.2831 13.316C99.2111 13.112 99.1751 12.8 99.1751 12.38V2.39C99.1751 2.114 99.1811 1.91 99.1931 1.778C99.2171 1.634 99.2771 1.472 99.3731 1.292C99.5411 0.967999 100.009 0.805999 100.777 0.805999H104.629C105.685 0.805999 106.711 1.19 107.707 1.958C108.199 2.33 108.601 2.834 108.913 3.47ZM104.629 7.178C104.989 7.178 105.343 7.046 105.691 6.782C106.039 6.518 106.213 6.122 106.213 5.594C106.213 5.066 106.039 4.67 105.691 4.406C105.343 4.13 104.983 3.992 104.611 3.992H102.361V7.178H104.629ZM116.992 4.622C117.22 4.694 117.406 4.82 117.55 5C117.706 5.168 117.784 5.444 117.784 5.828C117.784 6.212 117.67 6.632 117.442 7.088C117.214 7.544 116.884 7.772 116.452 7.772C116.236 7.772 116.026 7.724 115.822 7.628C115.63 7.532 115.372 7.484 115.048 7.484C114.724 7.484 114.418 7.598 114.13 7.826C113.854 8.054 113.716 8.33 113.716 8.654V12.434C113.716 12.71 113.704 12.92 113.68 13.064C113.668 13.196 113.614 13.352 113.518 13.532C113.338 13.844 112.87 14 112.114 14C111.538 14 111.124 13.898 110.872 13.694C110.68 13.526 110.572 13.268 110.548 12.92C110.548 12.8 110.548 12.626 110.548 12.398V6.08C110.548 5.804 110.554 5.6 110.566 5.468C110.59 5.324 110.644 5.168 110.728 5C110.896 4.676 111.364 4.514 112.132 4.514C112.852 4.514 113.302 4.652 113.482 4.928C113.614 5.12 113.68 5.318 113.68 5.522C113.74 5.438 113.824 5.336 113.932 5.216C114.052 5.096 114.298 4.934 114.67 4.73C115.042 4.526 115.366 4.424 115.642 4.424C115.93 4.424 116.17 4.442 116.362 4.478C116.554 4.502 116.764 4.55 116.992 4.622ZM127.374 8.132C127.374 8.864 127.188 9.41 126.816 9.77C126.456 10.118 126.054 10.292 125.61 10.292H121.344C121.344 10.628 121.542 10.91 121.938 11.138C122.334 11.366 122.73 11.48 123.126 11.48C123.822 11.48 124.368 11.408 124.764 11.264L124.962 11.192C125.25 11.06 125.49 10.994 125.682 10.994C126.066 10.994 126.396 11.264 126.672 11.804C126.828 12.128 126.906 12.404 126.906 12.632C126.906 13.7 125.628 14.234 123.072 14.234C122.184 14.234 121.392 14.084 120.696 13.784C120.012 13.472 119.478 13.064 119.094 12.56C118.338 11.588 117.96 10.502 117.96 9.302C117.96 7.79 118.446 6.584 119.418 5.684C120.402 4.772 121.626 4.316 123.09 4.316C124.758 4.316 125.982 4.904 126.762 6.08C127.17 6.704 127.374 7.388 127.374 8.132ZM123.576 8.654C124.032 8.654 124.26 8.462 124.26 8.078C124.26 7.802 124.152 7.58 123.936 7.412C123.732 7.244 123.432 7.16 123.036 7.16C122.652 7.16 122.268 7.322 121.884 7.646C121.5 7.958 121.308 8.294 121.308 8.654H123.576ZM134.902 0.571999C134.998 0.391999 135.16 0.265999 135.388 0.194C135.616 0.121999 135.916 0.0859989 136.288 0.0859989C136.672 0.0859989 136.978 0.121999 137.206 0.194C137.434 0.265999 137.59 0.391999 137.674 0.571999C137.77 0.752 137.824 0.914 137.836 1.058C137.86 1.19 137.872 1.394 137.872 1.67V12.416C137.872 12.692 137.86 12.902 137.836 13.046C137.824 13.178 137.77 13.328 137.674 13.496C137.494 13.82 136.984 13.982 136.144 13.982C135.316 13.982 134.854 13.688 134.758 13.1C134.254 13.676 133.552 13.964 132.652 13.964C131.572 13.964 130.588 13.496 129.7 12.56C128.812 11.612 128.368 10.514 128.368 9.266C128.368 8.006 128.812 6.902 129.7 5.954C130.6 5.006 131.584 4.532 132.652 4.532C133.54 4.532 134.23 4.832 134.722 5.432V1.652C134.722 1.376 134.728 1.172 134.74 1.04C134.764 0.895999 134.818 0.739999 134.902 0.571999ZM131.986 10.346C132.298 10.67 132.676 10.832 133.12 10.832C133.564 10.832 133.93 10.67 134.218 10.346C134.518 10.022 134.668 9.668 134.668 9.284C134.668 8.888 134.524 8.522 134.236 8.186C133.96 7.85 133.582 7.682 133.102 7.682C132.622 7.682 132.238 7.85 131.95 8.186C131.662 8.51 131.518 8.87 131.518 9.266C131.518 9.662 131.674 10.022 131.986 10.346ZM139.306 6.098C139.306 5.822 139.312 5.618 139.324 5.486C139.348 5.342 139.402 5.18 139.486 5C139.654 4.688 140.122 4.532 140.89 4.532C141.466 4.532 141.874 4.634 142.114 4.838C142.318 5.006 142.426 5.264 142.438 5.612C142.45 5.732 142.456 5.906 142.456 6.134V12.434C142.456 12.71 142.444 12.92 142.42 13.064C142.408 13.196 142.354 13.352 142.258 13.532C142.102 13.844 141.64 14 140.872 14C140.116 14 139.654 13.838 139.486 13.514C139.402 13.334 139.348 13.178 139.324 13.046C139.312 12.914 139.306 12.704 139.306 12.416V6.098ZM142.258 2.768C142.174 2.936 142.018 3.056 141.79 3.128C141.562 3.2 141.256 3.236 140.872 3.236C140.5 3.236 140.2 3.2 139.972 3.128C139.744 3.056 139.582 2.93 139.486 2.75C139.402 2.57 139.348 2.414 139.324 2.282C139.312 2.138 139.306 1.928 139.306 1.652C139.306 1.376 139.312 1.172 139.324 1.04C139.348 0.895999 139.402 0.739999 139.486 0.571999C139.654 0.247999 140.122 0.0859989 140.89 0.0859989C141.646 0.0859989 142.102 0.247999 142.258 0.571999C142.354 0.752 142.408 0.914 142.42 1.058C142.444 1.19 142.456 1.394 142.456 1.67C142.456 1.946 142.444 2.156 142.42 2.3C142.408 2.432 142.354 2.588 142.258 2.768ZM146.864 9.266C146.864 9.77 147.032 10.166 147.368 10.454C147.704 10.73 148.058 10.868 148.43 10.868C148.814 10.868 149.168 10.76 149.492 10.544C149.828 10.316 150.098 10.202 150.302 10.202C150.662 10.202 151.1 10.52 151.616 11.156C151.892 11.504 152.03 11.816 152.03 12.092C152.03 12.548 151.7 12.974 151.04 13.37C150.356 13.85 149.516 14.09 148.52 14.09C147.404 14.09 146.33 13.688 145.298 12.884C144.806 12.5 144.404 11.99 144.092 11.354C143.78 10.706 143.624 9.998 143.624 9.23C143.624 8.45 143.78 7.748 144.092 7.124C144.404 6.488 144.806 5.978 145.298 5.594C146.294 4.802 147.356 4.406 148.484 4.406C148.94 4.406 149.384 4.472 149.816 4.604C150.248 4.724 150.566 4.844 150.77 4.964L151.058 5.144C151.274 5.288 151.442 5.402 151.562 5.486C151.874 5.726 152.03 6.002 152.03 6.314C152.03 6.614 151.904 6.956 151.652 7.34C151.22 8 150.806 8.33 150.41 8.33C150.182 8.33 149.858 8.198 149.438 7.934C149.222 7.73 148.91 7.628 148.502 7.628C148.106 7.628 147.734 7.772 147.386 8.06C147.038 8.348 146.864 8.75 146.864 9.266ZM158.525 7.7L157.355 7.628V10.112C157.355 10.436 157.403 10.67 157.499 10.814C157.607 10.958 157.799 11.03 158.075 11.03C158.363 11.03 158.579 11.042 158.723 11.066C158.879 11.078 159.041 11.132 159.209 11.228C159.485 11.384 159.623 11.786 159.623 12.434C159.623 13.19 159.455 13.652 159.119 13.82C158.939 13.904 158.777 13.958 158.633 13.982C158.501 13.994 158.303 14 158.039 14C156.791 14 155.843 13.718 155.195 13.154C154.547 12.59 154.223 11.636 154.223 10.292V7.628C153.995 7.664 153.749 7.682 153.485 7.682C153.221 7.682 152.999 7.58 152.819 7.376C152.651 7.172 152.567 6.824 152.567 6.332C152.567 5.84 152.597 5.486 152.657 5.27C152.717 5.042 152.801 4.88 152.909 4.784C153.101 4.628 153.341 4.55 153.629 4.55L154.223 4.622V2.768C154.223 2.492 154.229 2.288 154.241 2.156C154.265 2.024 154.325 1.88 154.421 1.724C154.577 1.424 155.039 1.274 155.807 1.274C156.623 1.274 157.109 1.496 157.265 1.94C157.325 2.132 157.355 2.438 157.355 2.858V4.622C157.883 4.574 158.279 4.55 158.543 4.55C158.819 4.55 159.023 4.562 159.155 4.586C159.299 4.598 159.461 4.652 159.641 4.748C159.953 4.904 160.109 5.366 160.109 6.134C160.109 6.89 159.947 7.352 159.623 7.52C159.443 7.604 159.281 7.658 159.137 7.682C159.005 7.694 158.801 7.7 158.525 7.7ZM161.175 13.154C160.947 13.01 160.833 12.782 160.833 12.47C160.833 12.158 161.061 11.684 161.517 11.048C161.649 10.844 161.859 10.742 162.147 10.742C162.447 10.742 162.849 10.892 163.353 11.192C163.857 11.48 164.313 11.624 164.721 11.624C165.453 11.624 165.819 11.48 165.819 11.192C165.819 10.964 165.417 10.796 164.613 10.688C163.857 10.58 163.107 10.298 162.363 9.842C162.015 9.626 161.727 9.29 161.499 8.834C161.271 8.366 161.157 7.814 161.157 7.178C161.157 5.282 162.459 4.334 165.063 4.334C165.915 4.334 166.791 4.538 167.691 4.946C168.111 5.138 168.321 5.378 168.321 5.666C168.321 5.954 168.189 6.308 167.925 6.728C167.661 7.148 167.391 7.358 167.115 7.358C166.971 7.358 166.701 7.268 166.305 7.088C165.921 6.908 165.501 6.818 165.045 6.818C164.337 6.818 163.983 6.95 163.983 7.214C163.983 7.574 164.391 7.808 165.207 7.916C165.999 8 166.767 8.228 167.511 8.6C167.859 8.768 168.147 9.062 168.375 9.482C168.615 9.89 168.735 10.406 168.735 11.03C168.735 11.654 168.615 12.188 168.375 12.632C168.147 13.064 167.823 13.388 167.403 13.604C166.635 13.976 165.669 14.162 164.505 14.162C163.353 14.162 162.243 13.826 161.175 13.154Z" fill="#F6FEDB"/>
</svg>
