<svg width="34" height="34" viewBox="0 0 34 34" fill="none" xmlns="http://www.w3.org/2000/svg">
<path d="M17 34C26.3888 34 34 26.3888 34 17C34 7.61116 26.3888 0 17 0C7.61116 0 0 7.61116 0 17C0 26.3888 7.61116 34 17 34Z" fill="#039BE5"/>
<path d="M7.77904 16.6317L24.1699 10.312C24.9306 10.0371 25.595 10.4976 25.3485 11.6479L25.35 11.6465L22.5591 24.7946C22.3523 25.7267 21.7984 25.9534 21.0235 25.5142L16.7735 22.382L14.7235 24.3568C14.4969 24.5835 14.3056 24.7747 13.8665 24.7747L14.1682 20.4496L22.0449 13.3337C22.3877 13.032 21.9684 12.862 21.5165 13.1623L11.7825 19.2908L7.58638 17.9818C6.67546 17.6928 6.65563 17.0709 7.77904 16.6317Z" fill="white"/>
</svg>
