<svg width="29" height="30" viewBox="0 0 29 30" fill="none" xmlns="http://www.w3.org/2000/svg">
<g clip-path="url(#clip0)">
<path d="M29 5.69813C27.9216 6.1875 26.7724 6.51187 25.5744 6.66937C26.8069 5.90812 27.7476 4.71187 28.1898 3.27C27.0407 3.97875 25.7719 4.47938 24.4198 4.75875C23.3287 3.55688 21.7736 2.8125 20.0771 2.8125C16.7856 2.8125 14.1357 5.57625 14.1357 8.96438C14.1357 9.45188 14.1756 9.92062 14.2734 10.3669C9.33075 10.1175 4.95719 7.66688 2.01912 3.93375C1.50619 4.85438 1.20531 5.90812 1.20531 7.0425C1.20531 9.1725 2.26562 11.0606 3.84612 12.1537C2.89094 12.135 1.95387 11.8481 1.16 11.3962C1.16 11.415 1.16 11.4394 1.16 11.4637C1.16 14.4525 3.22081 16.935 5.92325 17.5069C5.43931 17.6438 4.91187 17.7094 4.3645 17.7094C3.98388 17.7094 3.59962 17.6869 3.23894 17.6044C4.00925 20.04 6.19513 21.8306 8.79425 21.8888C6.7715 23.5256 4.20319 24.5119 1.42281 24.5119C0.93525 24.5119 0.467625 24.4894 0 24.4275C2.63356 26.1844 5.75469 27.1875 9.1205 27.1875C20.0607 27.1875 26.042 17.8125 26.042 9.68625C26.042 9.41437 26.0329 9.15188 26.0203 8.89125C27.2002 8.025 28.1916 6.94313 29 5.69813Z" fill="#03A9F4"/>
</g>
<defs>
<clipPath id="clip0">
<rect width="29" height="30" fill="white"/>
</clipPath>
</defs>
</svg>
