<svg width="28" height="28" viewBox="0 0 28 28" fill="none" xmlns="http://www.w3.org/2000/svg">
<circle cx="14" cy="14" r="13.5" stroke="#F6FEDB"/>
<path d="M8.13028 19.9695C8.24484 20.032 10.9711 21.5 14 21.5C17.2815 21.5 19.7741 20.0271 19.8786 19.9644C19.9156 19.9422 19.9463 19.9108 19.9676 19.8732C19.9888 19.8356 20 19.7932 20 19.75C20 17.7315 19.381 15.8844 18.2572 14.5487C17.471 13.6143 16.4845 12.9775 15.3966 12.6843C16.0625 12.3673 16.6009 11.8333 16.9232 11.1699C17.2456 10.5065 17.3326 9.75321 17.1702 9.03377C17.0077 8.31433 16.6054 7.67155 16.0293 7.21103C15.4532 6.7505 14.7376 6.49963 14 6.49963C13.2624 6.49963 12.5468 6.7505 11.9707 7.21103C11.3946 7.67155 10.9923 8.31433 10.8298 9.03377C10.6674 9.75321 10.7544 10.5065 11.0768 11.1699C11.3991 11.8333 11.9375 12.3673 12.6034 12.6843C11.5155 12.9775 10.529 13.6144 9.74284 14.5487C8.61897 15.8844 8 17.7315 8 19.75C8 19.7949 8.0121 19.839 8.03502 19.8776C8.05795 19.9163 8.09085 19.948 8.13028 19.9695ZM11.25 9.75002C11.25 9.20613 11.4113 8.67444 11.7135 8.22221C12.0156 7.76997 12.4451 7.4175 12.9476 7.20936C13.4501 7.00121 14.0031 6.94676 14.5365 7.05286C15.0699 7.15897 15.5599 7.42089 15.9445 7.80548C16.3291 8.19007 16.5911 8.68008 16.6972 9.21353C16.8033 9.74697 16.7488 10.2999 16.5407 10.8024C16.3325 11.3049 15.9801 11.7344 15.5278 12.0366C15.0756 12.3387 14.5439 12.5 14 12.5C13.2709 12.4992 12.5719 12.2092 12.0564 11.6937C11.5408 11.1781 11.2508 10.4791 11.25 9.75002ZM10.1254 14.8706C11.1406 13.6643 12.5165 13 14 13C15.4835 13 16.8594 13.6643 17.8746 14.8706C18.8959 16.0843 19.4701 17.7606 19.4989 19.6042C18.9639 19.8938 16.7409 21 14 21C11.4653 21 9.07812 19.8872 8.50125 19.5983C8.53125 17.757 9.10522 16.083 10.1254 14.8706Z" fill="#F6FEDB"/>
</svg>
