<svg width="29" height="30" viewBox="0 0 29 30" fill="none" xmlns="http://www.w3.org/2000/svg">
<path d="M14.5036 0H14.4964C6.50144 0 0 6.7275 0 15C0 18.2812 1.02225 21.3225 2.76044 23.7919L0.953375 29.3644L6.52681 27.5213C8.81962 29.0925 11.5547 30 14.5036 30C22.4986 30 29 23.2706 29 15C29 6.72938 22.4986 0 14.5036 0Z" fill="#4CAF50"/>
<path d="M22.9408 21.1818C22.5909 22.2037 21.2026 23.0512 20.0951 23.2987C19.3375 23.4656 18.3479 23.5987 15.0165 22.17C10.7553 20.3437 8.01119 15.8643 7.79731 15.5737C7.5925 15.2831 6.07544 13.2018 6.07544 11.0493C6.07544 8.89685 7.13213 7.84872 7.55806 7.39872C7.90788 7.02935 8.48606 6.8606 9.04069 6.8606C9.22013 6.8606 9.38144 6.86997 9.52644 6.87747C9.95238 6.89622 10.1663 6.92247 10.4472 7.6181C10.797 8.48997 11.6489 10.6425 11.7504 10.8637C11.8537 11.085 11.957 11.385 11.812 11.6756C11.6761 11.9756 11.5564 12.1087 11.3426 12.3637C11.1287 12.6187 10.9257 12.8137 10.7118 13.0875C10.5161 13.3256 10.2949 13.5806 10.5414 14.0212C10.7879 14.4525 11.6398 15.8906 12.8941 17.0456C14.5126 18.5362 15.8249 19.0125 16.2943 19.215C16.6441 19.365 17.061 19.3293 17.3166 19.0481C17.641 18.6862 18.0416 18.0862 18.4494 17.4956C18.7394 17.0718 19.1055 17.0193 19.4898 17.1693C19.8813 17.31 21.9529 18.3693 22.3789 18.5887C22.8048 18.81 23.0858 18.915 23.1891 19.1006C23.2906 19.2862 23.2906 20.1581 22.9408 21.1818Z" fill="#FAFAFA"/>
</svg>
